<?xml version="1.0" encoding="UTF-8"?>
<svg xmlns="http://www.w3.org/2000/svg" width="1584" height="396" viewBox="0 0 1584 396">
  <defs>
    <linearGradient id="bgGradient" x1="0%" y1="0%" x2="100%" y2="100%">
      <stop offset="0%" stop-color="#0f172a"/>
      <stop offset="40%" stop-color="#1e1b4b"/>
      <stop offset="100%" stop-color="#020617"/>
    </linearGradient>
    <linearGradient id="textGradient" x1="0%" y1="0%" x2="100%" y2="0%">
      <stop offset="0%" stop-color="#38bdf8"/>
      <stop offset="100%" stop-color="#818cf8"/>
    </linearGradient>
    <linearGradient id="neonGrad" x1="0%" y1="0%" x2="100%" y2="100%">
      <stop offset="0%" stop-color="#06b6d4"/>
      <stop offset="50%" stop-color="#8b5cf6"/>
      <stop offset="100%" stop-color="#ec4899"/>
    </linearGradient>
    <pattern id="grid" width="40" height="40" patternUnits="userSpaceOnUse">
      <path d="M 40 0 L 0 0 0 40" fill="none" stroke="rgba(255,255,255,0.03)" stroke-width="1"/>
    </pattern>
    <filter id="glow">
      <feGaussianBlur stdDeviation="2.5" result="coloredBlur"/>
      <feMerge>
        <feMergeNode in="coloredBlur"/>
        <feMergeNode in="SourceGraphic"/>
      </feMerge>
    </filter>
    <filter id="strongGlow">
      <feGaussianBlur stdDeviation="6" result="blur1"/>
      <feGaussianBlur stdDeviation="3" result="blur2"/>
      <feMerge>
        <feMergeNode in="blur1"/>
        <feMergeNode in="blur2"/>
        <feMergeNode in="SourceGraphic"/>
      </feMerge>
    </filter>
    <filter id="nodeGlow">
      <feGaussianBlur stdDeviation="4" result="blur"/>
      <feMerge>
        <feMergeNode in="blur"/>
        <feMergeNode in="blur"/>
        <feMergeNode in="SourceGraphic"/>
      </feMerge>
    </filter>
  </defs>

  <!-- Background -->
  <rect width="1584" height="396" fill="url(#bgGradient)"/>
  <rect width="1584" height="396" fill="url(#grid)"/>

  <!-- Messy Network Lines with Moving Dots -->
  <line x1="1053.3" y1="108.1" x2="1225.1" y2="58.2" stroke="url(#neonGrad)" stroke-width="1" stroke-opacity="0.037"/>
  <line x1="1053.3" y1="108.1" x2="1006.3" y2="179.5" stroke="url(#neonGrad)" stroke-width="1" stroke-opacity="0.122"/>
  <line x1="1053.3" y1="108.1" x2="1012.1" y2="152" stroke="url(#neonGrad)" stroke-width="1" stroke-opacity="0.145"/>
  <line x1="1053.3" y1="108.1" x2="1077.2" y2="147.1" stroke="url(#neonGrad)" stroke-width="1" stroke-opacity="0.158"/>
  <line x1="1053.3" y1="108.1" x2="862.3" y2="148.9" stroke="url(#neonGrad)" stroke-width="1" stroke-opacity="0.022"/>
  <line x1="1053.3" y1="108.1" x2="1088.4" y2="56" stroke="url(#neonGrad)" stroke-width="1" stroke-opacity="0.143"/>
  <line x1="1053.3" y1="108.1" x2="1016.8" y2="122.2" stroke="url(#neonGrad)" stroke-width="1" stroke-opacity="0.164"/>
  <line x1="1053.3" y1="108.1" x2="968.9" y2="298.5" stroke="url(#neonGrad)" stroke-width="1" stroke-opacity="0.011"/>
  <line x1="1053.3" y1="108.1" x2="926.3" y2="205.9" stroke="url(#neonGrad)" stroke-width="1" stroke-opacity="0.054"/>
  <line x1="1053.3" y1="108.1" x2="1096.7" y2="278.7" stroke="url(#neonGrad)" stroke-width="1" stroke-opacity="0.040"/>
  <line x1="1139.4" y1="369.4" x2="1106.7" y2="363.2" stroke="url(#neonGrad)" stroke-width="1" stroke-opacity="0.170"/>
  <line x1="1139.4" y1="369.4" x2="968.9" y2="298.5" stroke="url(#neonGrad)" stroke-width="1" stroke-opacity="0.032"/>
  <line x1="1139.4" y1="369.4" x2="1225.9" y2="275.9" stroke="url(#neonGrad)" stroke-width="1" stroke-opacity="0.084"/>
  <line x1="1139.4" y1="369.4" x2="1275.8" y2="209.1" stroke="url(#neonGrad)" stroke-width="1" stroke-opacity="0.009"/>
  <line x1="1139.4" y1="369.4" x2="1096.7" y2="278.7" stroke="url(#neonGrad)" stroke-width="1" stroke-opacity="0.109"/>
  <line x1="1106.7" y1="363.2" x2="1006.3" y2="179.5" stroke="url(#neonGrad)" stroke-width="1" stroke-opacity="0.010"/>
  <line x1="1106.7" y1="363.2" x2="1077.2" y2="147.1" stroke="url(#neonGrad)" stroke-width="1" stroke-opacity="0.002"/>
  <line x1="1106.7" y1="363.2" x2="968.9" y2="298.5" stroke="url(#neonGrad)" stroke-width="1" stroke-opacity="0.062"/>
  <line x1="1106.7" y1="363.2" x2="1225.9" y2="275.9" stroke="url(#neonGrad)" stroke-width="1" stroke-opacity="0.066"/>
  <line x1="1106.7" y1="363.2" x2="1096.7" y2="278.7" stroke="url(#neonGrad)" stroke-width="1" stroke-opacity="0.123"/>
  <line x1="1448.7" y1="164.2" x2="1389.1" y2="258.6" stroke="url(#neonGrad)" stroke-width="1" stroke-opacity="0.099"/>
  <line x1="1448.7" y1="164.2" x2="1547.6" y2="29.4" stroke="url(#neonGrad)" stroke-width="1" stroke-opacity="0.048"/>
  <line x1="1448.7" y1="164.2" x2="1305.5" y2="51.2" stroke="url(#neonGrad)" stroke-width="1" stroke-opacity="0.034"/>
  <line x1="1448.7" y1="164.2" x2="1448.6" y2="81" stroke="url(#neonGrad)" stroke-width="1" stroke-opacity="0.124"/>
  <line x1="1448.7" y1="164.2" x2="1387.6" y2="193.7" stroke="url(#neonGrad)" stroke-width="1" stroke-opacity="0.138"/>
  <line x1="1448.7" y1="164.2" x2="1542.1" y2="216.5" stroke="url(#neonGrad)" stroke-width="1" stroke-opacity="0.103"/>
  <line x1="1448.7" y1="164.2" x2="1275.8" y2="209.1" stroke="url(#neonGrad)" stroke-width="1" stroke-opacity="0.038"/>
  <line x1="1448.7" y1="164.2" x2="1410.3" y2="51.4" stroke="url(#neonGrad)" stroke-width="1" stroke-opacity="0.092"/>
  <line x1="1389.1" y1="258.6" x2="1448.6" y2="81" stroke="url(#neonGrad)" stroke-width="1" stroke-opacity="0.030"/>
  <line x1="1389.1" y1="258.6" x2="1387.6" y2="193.7" stroke="url(#neonGrad)" stroke-width="1" stroke-opacity="0.141"/>
  <line x1="1389.1" y1="258.6" x2="1542.1" y2="216.5" stroke="url(#neonGrad)" stroke-width="1" stroke-opacity="0.056"/>
  <line x1="1389.1" y1="258.6" x2="1225.9" y2="275.9" stroke="url(#neonGrad)" stroke-width="1" stroke-opacity="0.051"/>
  <line x1="1389.1" y1="258.6" x2="1275.8" y2="209.1" stroke="url(#neonGrad)" stroke-width="1" stroke-opacity="0.088"/>
  <line x1="1389.1" y1="258.6" x2="1410.3" y2="51.4" stroke="url(#neonGrad)" stroke-width="1" stroke-opacity="0.011"/>
  <line x1="1547.6" y1="29.4" x2="1448.6" y2="81" stroke="url(#neonGrad)" stroke-width="1" stroke-opacity="0.099"/>
  <line x1="1547.6" y1="29.4" x2="1542.1" y2="216.5" stroke="url(#neonGrad)" stroke-width="1" stroke-opacity="0.030"/>
  <line x1="1547.6" y1="29.4" x2="1410.3" y2="51.4" stroke="url(#neonGrad)" stroke-width="1" stroke-opacity="0.074"/>
  <line x1="1225.1" y1="58.2" x2="1305.5" y2="51.2" stroke="url(#neonGrad)" stroke-width="1" stroke-opacity="0.127"/>
  <line x1="1225.1" y1="58.2" x2="1077.2" y2="147.1" stroke="url(#neonGrad)" stroke-width="1" stroke-opacity="0.043"/>
  <line x1="1225.1" y1="58.2" x2="1088.4" y2="56" stroke="url(#neonGrad)" stroke-width="1" stroke-opacity="0.076"/>
  <line x1="1225.1" y1="58.2" x2="1016.8" y2="122.2" stroke="url(#neonGrad)" stroke-width="1" stroke-opacity="0.002"/>
  <line x1="1225.1" y1="58.2" x2="1387.6" y2="193.7" stroke="url(#neonGrad)" stroke-width="1" stroke-opacity="0.008"/>
  <line x1="1225.1" y1="58.2" x2="1225.9" y2="275.9" stroke="url(#neonGrad)" stroke-width="1" stroke-opacity="0.002"/>
  <line x1="1225.1" y1="58.2" x2="1275.8" y2="209.1" stroke="url(#neonGrad)" stroke-width="1" stroke-opacity="0.055"/>
  <line x1="1225.1" y1="58.2" x2="1410.3" y2="51.4" stroke="url(#neonGrad)" stroke-width="1" stroke-opacity="0.032"/>
  <line x1="1006.3" y1="179.5" x2="1012.1" y2="152" stroke="url(#neonGrad)" stroke-width="1" stroke-opacity="0.174"/>
  <line x1="1006.3" y1="179.5" x2="1077.2" y2="147.1" stroke="url(#neonGrad)" stroke-width="1" stroke-opacity="0.129"/>
  <line x1="1006.3" y1="179.5" x2="862.3" y2="148.9" stroke="url(#neonGrad)" stroke-width="1" stroke-opacity="0.066"/>
  <line x1="1006.3" y1="179.5" x2="1088.4" y2="56" stroke="url(#neonGrad)" stroke-width="1" stroke-opacity="0.065"/>
  <line x1="1006.3" y1="179.5" x2="831.6" y2="306.6" stroke="url(#neonGrad)" stroke-width="1" stroke-opacity="0.004"/>
  <line x1="1006.3" y1="179.5" x2="806.9" y2="249.4" stroke="url(#neonGrad)" stroke-width="1" stroke-opacity="0.008"/>
  <line x1="1006.3" y1="179.5" x2="1016.8" y2="122.2" stroke="url(#neonGrad)" stroke-width="1" stroke-opacity="0.147"/>
  <line x1="1006.3" y1="179.5" x2="968.9" y2="298.5" stroke="url(#neonGrad)" stroke-width="1" stroke-opacity="0.087"/>
  <line x1="1006.3" y1="179.5" x2="926.3" y2="205.9" stroke="url(#neonGrad)" stroke-width="1" stroke-opacity="0.123"/>
  <line x1="1006.3" y1="179.5" x2="1096.7" y2="278.7" stroke="url(#neonGrad)" stroke-width="1" stroke-opacity="0.078"/>
  <line x1="1012.1" y1="152" x2="1077.2" y2="147.1" stroke="url(#neonGrad)" stroke-width="1" stroke-opacity="0.141"/>
  <line x1="1012.1" y1="152" x2="862.3" y2="148.9" stroke="url(#neonGrad)" stroke-width="1" stroke-opacity="0.064"/>
  <line x1="1012.1" y1="152" x2="1088.4" y2="56" stroke="url(#neonGrad)" stroke-width="1" stroke-opacity="0.089"/>
  <line x1="1012.1" y1="152" x2="1016.8" y2="122.2" stroke="url(#neonGrad)" stroke-width="1" stroke-opacity="0.173"/>
  <line x1="1012.1" y1="152" x2="968.9" y2="298.5" stroke="url(#neonGrad)" stroke-width="1" stroke-opacity="0.061"/>
  <line x1="1012.1" y1="152" x2="926.3" y2="205.9" stroke="url(#neonGrad)" stroke-width="1" stroke-opacity="0.108"/>
  <line x1="1012.1" y1="152" x2="1096.7" y2="278.7" stroke="url(#neonGrad)" stroke-width="1" stroke-opacity="0.062"/>
  <line x1="1305.5" y1="51.2" x2="1448.6" y2="81" stroke="url(#neonGrad)" stroke-width="1" stroke-opacity="0.067"/>
  <line x1="1305.5" y1="51.2" x2="1088.4" y2="56" stroke="url(#neonGrad)" stroke-width="1" stroke-opacity="0.003"/>
  <line x1="1305.5" y1="51.2" x2="1387.6" y2="193.7" stroke="url(#neonGrad)" stroke-width="1" stroke-opacity="0.050"/>
  <line x1="1305.5" y1="51.2" x2="1275.8" y2="209.1" stroke="url(#neonGrad)" stroke-width="1" stroke-opacity="0.054"/>
  <line x1="1305.5" y1="51.2" x2="1410.3" y2="51.4" stroke="url(#neonGrad)" stroke-width="1" stroke-opacity="0.105"/>
  <line x1="1448.6" y1="81" x2="1387.6" y2="193.7" stroke="url(#neonGrad)" stroke-width="1" stroke-opacity="0.084"/>
  <line x1="1448.6" y1="81" x2="1542.1" y2="216.5" stroke="url(#neonGrad)" stroke-width="1" stroke-opacity="0.050"/>
  <line x1="1448.6" y1="81" x2="1275.8" y2="209.1" stroke="url(#neonGrad)" stroke-width="1" stroke-opacity="0.004"/>
  <line x1="1448.6" y1="81" x2="1410.3" y2="51.4" stroke="url(#neonGrad)" stroke-width="1" stroke-opacity="0.156"/>
  <line x1="1077.2" y1="147.1" x2="862.3" y2="148.9" stroke="url(#neonGrad)" stroke-width="1" stroke-opacity="0.005"/>
  <line x1="1077.2" y1="147.1" x2="1088.4" y2="56" stroke="url(#neonGrad)" stroke-width="1" stroke-opacity="0.117"/>
  <line x1="1077.2" y1="147.1" x2="1016.8" y2="122.2" stroke="url(#neonGrad)" stroke-width="1" stroke-opacity="0.141"/>
  <line x1="1077.2" y1="147.1" x2="968.9" y2="298.5" stroke="url(#neonGrad)" stroke-width="1" stroke-opacity="0.031"/>
  <line x1="1077.2" y1="147.1" x2="1225.9" y2="275.9" stroke="url(#neonGrad)" stroke-width="1" stroke-opacity="0.021"/>
  <line x1="1077.2" y1="147.1" x2="1275.8" y2="209.1" stroke="url(#neonGrad)" stroke-width="1" stroke-opacity="0.011"/>
  <line x1="1077.2" y1="147.1" x2="926.3" y2="205.9" stroke="url(#neonGrad)" stroke-width="1" stroke-opacity="0.053"/>
  <line x1="1077.2" y1="147.1" x2="1096.7" y2="278.7" stroke="url(#neonGrad)" stroke-width="1" stroke-opacity="0.079"/>
  <line x1="862.3" y1="148.9" x2="831.6" y2="306.6" stroke="url(#neonGrad)" stroke-width="1" stroke-opacity="0.054"/>
  <line x1="862.3" y1="148.9" x2="806.9" y2="249.4" stroke="url(#neonGrad)" stroke-width="1" stroke-opacity="0.096"/>
  <line x1="862.3" y1="148.9" x2="1016.8" y2="122.2" stroke="url(#neonGrad)" stroke-width="1" stroke-opacity="0.057"/>
  <line x1="862.3" y1="148.9" x2="968.9" y2="298.5" stroke="url(#neonGrad)" stroke-width="1" stroke-opacity="0.033"/>
  <line x1="862.3" y1="148.9" x2="926.3" y2="205.9" stroke="url(#neonGrad)" stroke-width="1" stroke-opacity="0.122"/>
  <line x1="1088.4" y1="56" x2="1016.8" y2="122.2" stroke="url(#neonGrad)" stroke-width="1" stroke-opacity="0.111"/>
  <line x1="831.6" y1="306.6" x2="806.9" y2="249.4" stroke="url(#neonGrad)" stroke-width="1" stroke-opacity="0.143"/>
  <line x1="831.6" y1="306.6" x2="968.9" y2="298.5" stroke="url(#neonGrad)" stroke-width="1" stroke-opacity="0.075"/>
  <line x1="831.6" y1="306.6" x2="926.3" y2="205.9" stroke="url(#neonGrad)" stroke-width="1" stroke-opacity="0.074"/>
  <line x1="806.9" y1="249.4" x2="968.9" y2="298.5" stroke="url(#neonGrad)" stroke-width="1" stroke-opacity="0.046"/>
  <line x1="806.9" y1="249.4" x2="926.3" y2="205.9" stroke="url(#neonGrad)" stroke-width="1" stroke-opacity="0.084"/>
  <line x1="1016.8" y1="122.2" x2="968.9" y2="298.5" stroke="url(#neonGrad)" stroke-width="1" stroke-opacity="0.034"/>
  <line x1="1016.8" y1="122.2" x2="926.3" y2="205.9" stroke="url(#neonGrad)" stroke-width="1" stroke-opacity="0.088"/>
  <line x1="1016.8" y1="122.2" x2="1096.7" y2="278.7" stroke="url(#neonGrad)" stroke-width="1" stroke-opacity="0.040"/>
  <line x1="1387.6" y1="193.7" x2="1542.1" y2="216.5" stroke="url(#neonGrad)" stroke-width="1" stroke-opacity="0.058"/>
  <line x1="1387.6" y1="193.7" x2="1225.9" y2="275.9" stroke="url(#neonGrad)" stroke-width="1" stroke-opacity="0.035"/>
  <line x1="1387.6" y1="193.7" x2="1275.8" y2="209.1" stroke="url(#neonGrad)" stroke-width="1" stroke-opacity="0.097"/>
  <line x1="1387.6" y1="193.7" x2="1410.3" y2="51.4" stroke="url(#neonGrad)" stroke-width="1" stroke-opacity="0.069"/>
  <line x1="1542.1" y1="216.5" x2="1410.3" y2="51.4" stroke="url(#neonGrad)" stroke-width="1" stroke-opacity="0.008"/>
  <line x1="968.9" y1="298.5" x2="926.3" y2="205.9" stroke="url(#neonGrad)" stroke-width="1" stroke-opacity="0.107"/>
  <line x1="968.9" y1="298.5" x2="1096.7" y2="278.7" stroke="url(#neonGrad)" stroke-width="1" stroke-opacity="0.082"/>
  <line x1="1225.9" y1="275.9" x2="1275.8" y2="209.1" stroke="url(#neonGrad)" stroke-width="1" stroke-opacity="0.124"/>
  <line x1="1225.9" y1="275.9" x2="1096.7" y2="278.7" stroke="url(#neonGrad)" stroke-width="1" stroke-opacity="0.083"/>
  <line x1="1275.8" y1="209.1" x2="1410.3" y2="51.4" stroke="url(#neonGrad)" stroke-width="1" stroke-opacity="0.012"/>
  <line x1="1275.8" y1="209.1" x2="1096.7" y2="278.7" stroke="url(#neonGrad)" stroke-width="1" stroke-opacity="0.025"/>
  <line x1="926.3" y1="205.9" x2="1096.7" y2="278.7" stroke="url(#neonGrad)" stroke-width="1" stroke-opacity="0.032"/>
  <circle cx="1053.3" cy="108.1" r="2" fill="#38bdf8" opacity="0.5" filter="url(#glow)"/>
  <circle cx="1139.4" cy="369.4" r="2" fill="#818cf8" opacity="0.5" filter="url(#glow)"/>
  <circle cx="1106.7" cy="363.2" r="2" fill="#c084fc" opacity="0.5" filter="url(#glow)"/>
  <circle cx="1448.7" cy="164.2" r="2" fill="#38bdf8" opacity="0.5" filter="url(#glow)"/>
  <circle cx="1389.1" cy="258.6" r="2" fill="#818cf8" opacity="0.5" filter="url(#glow)"/>
  <circle cx="1547.6" cy="29.4" r="2" fill="#c084fc" opacity="0.5" filter="url(#glow)"/>
  <circle cx="1225.1" cy="58.2" r="2" fill="#38bdf8" opacity="0.5" filter="url(#glow)"/>
  <circle cx="1006.3" cy="179.5" r="2" fill="#818cf8" opacity="0.5" filter="url(#glow)"/>
  <circle cx="1012.1" cy="152" r="2" fill="#c084fc" opacity="0.5" filter="url(#glow)"/>
  <circle cx="1305.5" cy="51.2" r="2" fill="#38bdf8" opacity="0.5" filter="url(#glow)"/>
  <circle cx="1448.6" cy="81" r="2" fill="#818cf8" opacity="0.5" filter="url(#glow)"/>
  <circle cx="1077.2" cy="147.1" r="2" fill="#c084fc" opacity="0.5" filter="url(#glow)"/>
  <circle cx="862.3" cy="148.9" r="2" fill="#38bdf8" opacity="0.5" filter="url(#glow)"/>
  <circle cx="1088.4" cy="56" r="2" fill="#818cf8" opacity="0.5" filter="url(#glow)"/>
  <circle cx="831.6" cy="306.6" r="2" fill="#c084fc" opacity="0.5" filter="url(#glow)"/>
  <circle cx="806.9" cy="249.4" r="2" fill="#38bdf8" opacity="0.5" filter="url(#glow)"/>
  <circle cx="1016.8" cy="122.2" r="2" fill="#818cf8" opacity="0.5" filter="url(#glow)"/>
  <circle cx="1387.6" cy="193.7" r="2" fill="#c084fc" opacity="0.5" filter="url(#glow)"/>
  <circle cx="1542.1" cy="216.5" r="2" fill="#38bdf8" opacity="0.5" filter="url(#glow)"/>
  <circle cx="968.9" cy="298.5" r="2" fill="#818cf8" opacity="0.5" filter="url(#glow)"/>
  <circle cx="1225.9" cy="275.9" r="2" fill="#c084fc" opacity="0.5" filter="url(#glow)"/>
  <circle cx="1275.8" cy="209.1" r="2" fill="#38bdf8" opacity="0.5" filter="url(#glow)"/>
  <circle cx="926.3" cy="205.9" r="2" fill="#818cf8" opacity="0.5" filter="url(#glow)"/>
  <circle cx="1410.3" cy="51.4" r="2" fill="#c084fc" opacity="0.5" filter="url(#glow)"/>
  <circle cx="1096.7" cy="278.7" r="2" fill="#38bdf8" opacity="0.5" filter="url(#glow)"/>
  <circle r="3" fill="#38bdf8" filter="url(#nodeGlow)">
    <animate attributeName="cx" values="1012.1;1077.2;1012.1" dur="3.05s" repeatCount="indefinite"/>
    <animate attributeName="cy" values="152;147.1;152" dur="3.05s" repeatCount="indefinite"/>
    <animate attributeName="opacity" values="0.3;1;1;0.3" dur="3.05s" repeatCount="indefinite"/>
  </circle>
  <circle r="3" fill="#818cf8" filter="url(#nodeGlow)">
    <animate attributeName="cx" values="1096.7;1448.6;1096.7" dur="4.91s" repeatCount="indefinite"/>
    <animate attributeName="cy" values="278.7;81;278.7" dur="4.91s" repeatCount="indefinite"/>
    <animate attributeName="opacity" values="0.3;1;1;0.3" dur="4.91s" repeatCount="indefinite"/>
  </circle>
  <circle r="3" fill="#c084fc" filter="url(#nodeGlow)">
    <animate attributeName="cx" values="1077.2;1106.7;1077.2" dur="3.34s" repeatCount="indefinite"/>
    <animate attributeName="cy" values="147.1;363.2;147.1" dur="3.34s" repeatCount="indefinite"/>
    <animate attributeName="opacity" values="0.3;1;1;0.3" dur="3.34s" repeatCount="indefinite"/>
  </circle>
  <circle r="3" fill="#a78bfa" filter="url(#nodeGlow)">
    <animate attributeName="cx" values="1106.7;1389.1;1106.7" dur="3.80s" repeatCount="indefinite"/>
    <animate attributeName="cy" values="363.2;258.6;363.2" dur="3.80s" repeatCount="indefinite"/>
    <animate attributeName="opacity" values="0.3;1;1;0.3" dur="3.80s" repeatCount="indefinite"/>
  </circle>
  <circle r="3" fill="#38bdf8" filter="url(#nodeGlow)">
    <animate attributeName="cx" values="1542.1;1410.3;1542.1" dur="3.66s" repeatCount="indefinite"/>
    <animate attributeName="cy" values="216.5;51.4;216.5" dur="3.66s" repeatCount="indefinite"/>
    <animate attributeName="opacity" values="0.3;1;1;0.3" dur="3.66s" repeatCount="indefinite"/>
  </circle>
  <circle r="3" fill="#818cf8" filter="url(#nodeGlow)">
    <animate attributeName="cx" values="1139.4;1053.3;1139.4" dur="2.56s" repeatCount="indefinite"/>
    <animate attributeName="cy" values="369.4;108.1;369.4" dur="2.56s" repeatCount="indefinite"/>
    <animate attributeName="opacity" values="0.3;1;1;0.3" dur="2.56s" repeatCount="indefinite"/>
  </circle>
  <circle r="3" fill="#c084fc" filter="url(#nodeGlow)">
    <animate attributeName="cx" values="1006.3;862.3;1006.3" dur="2.55s" repeatCount="indefinite"/>
    <animate attributeName="cy" values="179.5;148.9;179.5" dur="2.55s" repeatCount="indefinite"/>
    <animate attributeName="opacity" values="0.3;1;1;0.3" dur="2.55s" repeatCount="indefinite"/>
  </circle>
  <circle r="3" fill="#06b6d4" filter="url(#nodeGlow)">
    <animate attributeName="cx" values="1053.3;1547.6;1053.3" dur="2.98s" repeatCount="indefinite"/>
    <animate attributeName="cy" values="108.1;29.4;108.1" dur="2.98s" repeatCount="indefinite"/>
    <animate attributeName="opacity" values="0.3;1;1;0.3" dur="2.98s" repeatCount="indefinite"/>
  </circle>
  <circle r="3" fill="#a78bfa" filter="url(#nodeGlow)">
    <animate attributeName="cx" values="806.9;1389.1;806.9" dur="2.72s" repeatCount="indefinite"/>
    <animate attributeName="cy" values="249.4;258.6;249.4" dur="2.72s" repeatCount="indefinite"/>
    <animate attributeName="opacity" values="0.3;1;1;0.3" dur="2.72s" repeatCount="indefinite"/>
  </circle>
  <circle r="3" fill="#38bdf8" filter="url(#nodeGlow)">
    <animate attributeName="cx" values="1106.7;1542.1;1106.7" dur="2.81s" repeatCount="indefinite"/>
    <animate attributeName="cy" values="363.2;216.5;363.2" dur="2.81s" repeatCount="indefinite"/>
    <animate attributeName="opacity" values="0.3;1;1;0.3" dur="2.81s" repeatCount="indefinite"/>
  </circle>
  <circle r="3" fill="#818cf8" filter="url(#nodeGlow)">
    <animate attributeName="cx" values="1389.1;1275.8;1389.1" dur="4.28s" repeatCount="indefinite"/>
    <animate attributeName="cy" values="258.6;209.1;258.6" dur="4.28s" repeatCount="indefinite"/>
    <animate attributeName="opacity" values="0.3;1;1;0.3" dur="4.28s" repeatCount="indefinite"/>
  </circle>

  <!-- Terminal Window -->
  <g transform="translate(40, 25)">
    <rect x="0" y="0" width="700" height="350" rx="12" fill="#0c1222" fill-opacity="0.95" stroke="#1e293b" stroke-width="1.5"/>
    <rect x="0" y="0" width="700" height="32" rx="12" fill="#1e293b"/>
    <rect x="0" y="20" width="700" height="12" fill="#1e293b"/>
    <circle cx="20" cy="16" r="5" fill="#ef4444"/>
    <circle cx="38" cy="16" r="5" fill="#eab308"/>
    <circle cx="56" cy="16" r="5" fill="#22c55e"/>
    <text x="350" y="20" text-anchor="middle" font-family="monospace" font-size="12" fill="#94a3b8">Isn&apos;t tech Insane</text>

    <!-- Neural Network -->
    <line x1="50" y1="117.5" x2="200" y2="87.5" stroke="url(#neonGrad)" stroke-width="0.8" stroke-opacity="0.100"/>
    <line x1="50" y1="117.5" x2="200" y2="117.5" stroke="url(#neonGrad)" stroke-width="0.8" stroke-opacity="0.175"/>
    <line x1="50" y1="117.5" x2="200" y2="147.5" stroke="url(#neonGrad)" stroke-width="0.8" stroke-opacity="0.093"/>
    <line x1="50" y1="117.5" x2="200" y2="177.5" stroke="url(#neonGrad)" stroke-width="0.8" stroke-opacity="0.091"/>
    <line x1="50" y1="117.5" x2="200" y2="207.5" stroke="url(#neonGrad)" stroke-width="0.8" stroke-opacity="0.099"/>
    <line x1="50" y1="117.5" x2="200" y2="237.5" stroke="url(#neonGrad)" stroke-width="0.8" stroke-opacity="0.129"/>
    <line x1="50" y1="147.5" x2="200" y2="87.5" stroke="url(#neonGrad)" stroke-width="0.8" stroke-opacity="0.099"/>
    <line x1="50" y1="147.5" x2="200" y2="117.5" stroke="url(#neonGrad)" stroke-width="0.8" stroke-opacity="0.094"/>
    <line x1="50" y1="147.5" x2="200" y2="147.5" stroke="url(#neonGrad)" stroke-width="0.8" stroke-opacity="0.092"/>
    <line x1="50" y1="147.5" x2="200" y2="177.5" stroke="url(#neonGrad)" stroke-width="0.8" stroke-opacity="0.136"/>
    <line x1="50" y1="147.5" x2="200" y2="207.5" stroke="url(#neonGrad)" stroke-width="0.8" stroke-opacity="0.172"/>
    <line x1="50" y1="147.5" x2="200" y2="237.5" stroke="url(#neonGrad)" stroke-width="0.8" stroke-opacity="0.169"/>
    <line x1="50" y1="177.5" x2="200" y2="87.5" stroke="url(#neonGrad)" stroke-width="0.8" stroke-opacity="0.114"/>
    <line x1="50" y1="177.5" x2="200" y2="117.5" stroke="url(#neonGrad)" stroke-width="0.8" stroke-opacity="0.111"/>
    <line x1="50" y1="177.5" x2="200" y2="147.5" stroke="url(#neonGrad)" stroke-width="0.8" stroke-opacity="0.174"/>
    <line x1="50" y1="177.5" x2="200" y2="177.5" stroke="url(#neonGrad)" stroke-width="0.8" stroke-opacity="0.083"/>
    <line x1="50" y1="177.5" x2="200" y2="207.5" stroke="url(#neonGrad)" stroke-width="0.8" stroke-opacity="0.134"/>
    <line x1="50" y1="177.5" x2="200" y2="237.5" stroke="url(#neonGrad)" stroke-width="0.8" stroke-opacity="0.138"/>
    <line x1="50" y1="207.5" x2="200" y2="87.5" stroke="url(#neonGrad)" stroke-width="0.8" stroke-opacity="0.139"/>
    <line x1="50" y1="207.5" x2="200" y2="117.5" stroke="url(#neonGrad)" stroke-width="0.8" stroke-opacity="0.089"/>
    <line x1="50" y1="207.5" x2="200" y2="147.5" stroke="url(#neonGrad)" stroke-width="0.8" stroke-opacity="0.101"/>
    <line x1="50" y1="207.5" x2="200" y2="177.5" stroke="url(#neonGrad)" stroke-width="0.8" stroke-opacity="0.130"/>
    <line x1="50" y1="207.5" x2="200" y2="207.5" stroke="url(#neonGrad)" stroke-width="0.8" stroke-opacity="0.162"/>
    <line x1="50" y1="207.5" x2="200" y2="237.5" stroke="url(#neonGrad)" stroke-width="0.8" stroke-opacity="0.177"/>
    <line x1="200" y1="87.5" x2="350" y2="57.5" stroke="url(#neonGrad)" stroke-width="0.8" stroke-opacity="0.133"/>
    <line x1="200" y1="87.5" x2="350" y2="87.5" stroke="url(#neonGrad)" stroke-width="0.8" stroke-opacity="0.129"/>
    <line x1="200" y1="87.5" x2="350" y2="117.5" stroke="url(#neonGrad)" stroke-width="0.8" stroke-opacity="0.111"/>
    <line x1="200" y1="87.5" x2="350" y2="147.5" stroke="url(#neonGrad)" stroke-width="0.8" stroke-opacity="0.177"/>
    <line x1="200" y1="87.5" x2="350" y2="177.5" stroke="url(#neonGrad)" stroke-width="0.8" stroke-opacity="0.154"/>
    <line x1="200" y1="87.5" x2="350" y2="207.5" stroke="url(#neonGrad)" stroke-width="0.8" stroke-opacity="0.120"/>
    <line x1="200" y1="87.5" x2="350" y2="237.5" stroke="url(#neonGrad)" stroke-width="0.8" stroke-opacity="0.146"/>
    <line x1="200" y1="87.5" x2="350" y2="267.5" stroke="url(#neonGrad)" stroke-width="0.8" stroke-opacity="0.134"/>
    <line x1="200" y1="117.5" x2="350" y2="57.5" stroke="url(#neonGrad)" stroke-width="0.8" stroke-opacity="0.165"/>
    <line x1="200" y1="117.5" x2="350" y2="87.5" stroke="url(#neonGrad)" stroke-width="0.8" stroke-opacity="0.123"/>
    <line x1="200" y1="117.5" x2="350" y2="117.5" stroke="url(#neonGrad)" stroke-width="0.8" stroke-opacity="0.138"/>
    <line x1="200" y1="117.5" x2="350" y2="147.5" stroke="url(#neonGrad)" stroke-width="0.8" stroke-opacity="0.177"/>
    <line x1="200" y1="117.5" x2="350" y2="177.5" stroke="url(#neonGrad)" stroke-width="0.8" stroke-opacity="0.099"/>
    <line x1="200" y1="117.5" x2="350" y2="207.5" stroke="url(#neonGrad)" stroke-width="0.8" stroke-opacity="0.153"/>
    <line x1="200" y1="117.5" x2="350" y2="237.5" stroke="url(#neonGrad)" stroke-width="0.8" stroke-opacity="0.170"/>
    <line x1="200" y1="117.5" x2="350" y2="267.5" stroke="url(#neonGrad)" stroke-width="0.8" stroke-opacity="0.107"/>
    <line x1="200" y1="147.5" x2="350" y2="57.5" stroke="url(#neonGrad)" stroke-width="0.8" stroke-opacity="0.175"/>
    <line x1="200" y1="147.5" x2="350" y2="87.5" stroke="url(#neonGrad)" stroke-width="0.8" stroke-opacity="0.160"/>
    <line x1="200" y1="147.5" x2="350" y2="117.5" stroke="url(#neonGrad)" stroke-width="0.8" stroke-opacity="0.151"/>
    <line x1="200" y1="147.5" x2="350" y2="147.5" stroke="url(#neonGrad)" stroke-width="0.8" stroke-opacity="0.141"/>
    <line x1="200" y1="147.5" x2="350" y2="177.5" stroke="url(#neonGrad)" stroke-width="0.8" stroke-opacity="0.107"/>
    <line x1="200" y1="147.5" x2="350" y2="207.5" stroke="url(#neonGrad)" stroke-width="0.8" stroke-opacity="0.169"/>
    <line x1="200" y1="147.5" x2="350" y2="237.5" stroke="url(#neonGrad)" stroke-width="0.8" stroke-opacity="0.173"/>
    <line x1="200" y1="147.5" x2="350" y2="267.5" stroke="url(#neonGrad)" stroke-width="0.8" stroke-opacity="0.134"/>
    <line x1="200" y1="177.5" x2="350" y2="57.5" stroke="url(#neonGrad)" stroke-width="0.8" stroke-opacity="0.102"/>
    <line x1="200" y1="177.5" x2="350" y2="87.5" stroke="url(#neonGrad)" stroke-width="0.8" stroke-opacity="0.087"/>
    <line x1="200" y1="177.5" x2="350" y2="117.5" stroke="url(#neonGrad)" stroke-width="0.8" stroke-opacity="0.160"/>
    <line x1="200" y1="177.5" x2="350" y2="147.5" stroke="url(#neonGrad)" stroke-width="0.8" stroke-opacity="0.126"/>
    <line x1="200" y1="177.5" x2="350" y2="177.5" stroke="url(#neonGrad)" stroke-width="0.8" stroke-opacity="0.142"/>
    <line x1="200" y1="177.5" x2="350" y2="207.5" stroke="url(#neonGrad)" stroke-width="0.8" stroke-opacity="0.113"/>
    <line x1="200" y1="177.5" x2="350" y2="237.5" stroke="url(#neonGrad)" stroke-width="0.8" stroke-opacity="0.123"/>
    <line x1="200" y1="177.5" x2="350" y2="267.5" stroke="url(#neonGrad)" stroke-width="0.8" stroke-opacity="0.162"/>
    <line x1="200" y1="207.5" x2="350" y2="57.5" stroke="url(#neonGrad)" stroke-width="0.8" stroke-opacity="0.143"/>
    <line x1="200" y1="207.5" x2="350" y2="87.5" stroke="url(#neonGrad)" stroke-width="0.8" stroke-opacity="0.138"/>
    <line x1="200" y1="207.5" x2="350" y2="117.5" stroke="url(#neonGrad)" stroke-width="0.8" stroke-opacity="0.118"/>
    <line x1="200" y1="207.5" x2="350" y2="147.5" stroke="url(#neonGrad)" stroke-width="0.8" stroke-opacity="0.134"/>
    <line x1="200" y1="207.5" x2="350" y2="177.5" stroke="url(#neonGrad)" stroke-width="0.8" stroke-opacity="0.118"/>
    <line x1="200" y1="207.5" x2="350" y2="207.5" stroke="url(#neonGrad)" stroke-width="0.8" stroke-opacity="0.132"/>
    <line x1="200" y1="207.5" x2="350" y2="237.5" stroke="url(#neonGrad)" stroke-width="0.8" stroke-opacity="0.147"/>
    <line x1="200" y1="207.5" x2="350" y2="267.5" stroke="url(#neonGrad)" stroke-width="0.8" stroke-opacity="0.166"/>
    <line x1="200" y1="237.5" x2="350" y2="57.5" stroke="url(#neonGrad)" stroke-width="0.8" stroke-opacity="0.154"/>
    <line x1="200" y1="237.5" x2="350" y2="87.5" stroke="url(#neonGrad)" stroke-width="0.8" stroke-opacity="0.129"/>
    <line x1="200" y1="237.5" x2="350" y2="117.5" stroke="url(#neonGrad)" stroke-width="0.8" stroke-opacity="0.159"/>
    <line x1="200" y1="237.5" x2="350" y2="147.5" stroke="url(#neonGrad)" stroke-width="0.8" stroke-opacity="0.081"/>
    <line x1="200" y1="237.5" x2="350" y2="177.5" stroke="url(#neonGrad)" stroke-width="0.8" stroke-opacity="0.148"/>
    <line x1="200" y1="237.5" x2="350" y2="207.5" stroke="url(#neonGrad)" stroke-width="0.8" stroke-opacity="0.110"/>
    <line x1="200" y1="237.5" x2="350" y2="237.5" stroke="url(#neonGrad)" stroke-width="0.8" stroke-opacity="0.173"/>
    <line x1="200" y1="237.5" x2="350" y2="267.5" stroke="url(#neonGrad)" stroke-width="0.8" stroke-opacity="0.172"/>
    <line x1="350" y1="57.5" x2="500" y2="87.5" stroke="url(#neonGrad)" stroke-width="0.8" stroke-opacity="0.107"/>
    <line x1="350" y1="57.5" x2="500" y2="117.5" stroke="url(#neonGrad)" stroke-width="0.8" stroke-opacity="0.134"/>
    <line x1="350" y1="57.5" x2="500" y2="147.5" stroke="url(#neonGrad)" stroke-width="0.8" stroke-opacity="0.089"/>
    <line x1="350" y1="57.5" x2="500" y2="177.5" stroke="url(#neonGrad)" stroke-width="0.8" stroke-opacity="0.172"/>
    <line x1="350" y1="57.5" x2="500" y2="207.5" stroke="url(#neonGrad)" stroke-width="0.8" stroke-opacity="0.083"/>
    <line x1="350" y1="57.5" x2="500" y2="237.5" stroke="url(#neonGrad)" stroke-width="0.8" stroke-opacity="0.131"/>
    <line x1="350" y1="87.5" x2="500" y2="87.5" stroke="url(#neonGrad)" stroke-width="0.8" stroke-opacity="0.146"/>
    <line x1="350" y1="87.5" x2="500" y2="117.5" stroke="url(#neonGrad)" stroke-width="0.8" stroke-opacity="0.120"/>
    <line x1="350" y1="87.5" x2="500" y2="147.5" stroke="url(#neonGrad)" stroke-width="0.8" stroke-opacity="0.121"/>
    <line x1="350" y1="87.5" x2="500" y2="177.5" stroke="url(#neonGrad)" stroke-width="0.8" stroke-opacity="0.129"/>
    <line x1="350" y1="87.5" x2="500" y2="207.5" stroke="url(#neonGrad)" stroke-width="0.8" stroke-opacity="0.083"/>
    <line x1="350" y1="87.5" x2="500" y2="237.5" stroke="url(#neonGrad)" stroke-width="0.8" stroke-opacity="0.094"/>
    <line x1="350" y1="117.5" x2="500" y2="87.5" stroke="url(#neonGrad)" stroke-width="0.8" stroke-opacity="0.097"/>
    <line x1="350" y1="117.5" x2="500" y2="117.5" stroke="url(#neonGrad)" stroke-width="0.8" stroke-opacity="0.176"/>
    <line x1="350" y1="117.5" x2="500" y2="147.5" stroke="url(#neonGrad)" stroke-width="0.8" stroke-opacity="0.151"/>
    <line x1="350" y1="117.5" x2="500" y2="177.5" stroke="url(#neonGrad)" stroke-width="0.8" stroke-opacity="0.080"/>
    <line x1="350" y1="117.5" x2="500" y2="207.5" stroke="url(#neonGrad)" stroke-width="0.8" stroke-opacity="0.146"/>
    <line x1="350" y1="117.5" x2="500" y2="237.5" stroke="url(#neonGrad)" stroke-width="0.8" stroke-opacity="0.113"/>
    <line x1="350" y1="147.5" x2="500" y2="87.5" stroke="url(#neonGrad)" stroke-width="0.8" stroke-opacity="0.166"/>
    <line x1="350" y1="147.5" x2="500" y2="117.5" stroke="url(#neonGrad)" stroke-width="0.8" stroke-opacity="0.154"/>
    <line x1="350" y1="147.5" x2="500" y2="147.5" stroke="url(#neonGrad)" stroke-width="0.8" stroke-opacity="0.177"/>
    <line x1="350" y1="147.5" x2="500" y2="177.5" stroke="url(#neonGrad)" stroke-width="0.8" stroke-opacity="0.164"/>
    <line x1="350" y1="147.5" x2="500" y2="207.5" stroke="url(#neonGrad)" stroke-width="0.8" stroke-opacity="0.158"/>
    <line x1="350" y1="147.5" x2="500" y2="237.5" stroke="url(#neonGrad)" stroke-width="0.8" stroke-opacity="0.104"/>
    <line x1="350" y1="177.5" x2="500" y2="87.5" stroke="url(#neonGrad)" stroke-width="0.8" stroke-opacity="0.133"/>
    <line x1="350" y1="177.5" x2="500" y2="117.5" stroke="url(#neonGrad)" stroke-width="0.8" stroke-opacity="0.150"/>
    <line x1="350" y1="177.5" x2="500" y2="147.5" stroke="url(#neonGrad)" stroke-width="0.8" stroke-opacity="0.152"/>
    <line x1="350" y1="177.5" x2="500" y2="177.5" stroke="url(#neonGrad)" stroke-width="0.8" stroke-opacity="0.115"/>
    <line x1="350" y1="177.5" x2="500" y2="207.5" stroke="url(#neonGrad)" stroke-width="0.8" stroke-opacity="0.116"/>
    <line x1="350" y1="177.5" x2="500" y2="237.5" stroke="url(#neonGrad)" stroke-width="0.8" stroke-opacity="0.082"/>
    <line x1="350" y1="207.5" x2="500" y2="87.5" stroke="url(#neonGrad)" stroke-width="0.8" stroke-opacity="0.116"/>
    <line x1="350" y1="207.5" x2="500" y2="117.5" stroke="url(#neonGrad)" stroke-width="0.8" stroke-opacity="0.089"/>
    <line x1="350" y1="207.5" x2="500" y2="147.5" stroke="url(#neonGrad)" stroke-width="0.8" stroke-opacity="0.119"/>
    <line x1="350" y1="207.5" x2="500" y2="177.5" stroke="url(#neonGrad)" stroke-width="0.8" stroke-opacity="0.161"/>
    <line x1="350" y1="207.5" x2="500" y2="207.5" stroke="url(#neonGrad)" stroke-width="0.8" stroke-opacity="0.140"/>
    <line x1="350" y1="207.5" x2="500" y2="237.5" stroke="url(#neonGrad)" stroke-width="0.8" stroke-opacity="0.084"/>
    <line x1="350" y1="237.5" x2="500" y2="87.5" stroke="url(#neonGrad)" stroke-width="0.8" stroke-opacity="0.109"/>
    <line x1="350" y1="237.5" x2="500" y2="117.5" stroke="url(#neonGrad)" stroke-width="0.8" stroke-opacity="0.114"/>
    <line x1="350" y1="237.5" x2="500" y2="147.5" stroke="url(#neonGrad)" stroke-width="0.8" stroke-opacity="0.138"/>
    <line x1="350" y1="237.5" x2="500" y2="177.5" stroke="url(#neonGrad)" stroke-width="0.8" stroke-opacity="0.092"/>
    <line x1="350" y1="237.5" x2="500" y2="207.5" stroke="url(#neonGrad)" stroke-width="0.8" stroke-opacity="0.174"/>
    <line x1="350" y1="237.5" x2="500" y2="237.5" stroke="url(#neonGrad)" stroke-width="0.8" stroke-opacity="0.164"/>
    <line x1="350" y1="267.5" x2="500" y2="87.5" stroke="url(#neonGrad)" stroke-width="0.8" stroke-opacity="0.156"/>
    <line x1="350" y1="267.5" x2="500" y2="117.5" stroke="url(#neonGrad)" stroke-width="0.8" stroke-opacity="0.167"/>
    <line x1="350" y1="267.5" x2="500" y2="147.5" stroke="url(#neonGrad)" stroke-width="0.8" stroke-opacity="0.120"/>
    <line x1="350" y1="267.5" x2="500" y2="177.5" stroke="url(#neonGrad)" stroke-width="0.8" stroke-opacity="0.101"/>
    <line x1="350" y1="267.5" x2="500" y2="207.5" stroke="url(#neonGrad)" stroke-width="0.8" stroke-opacity="0.129"/>
    <line x1="350" y1="267.5" x2="500" y2="237.5" stroke="url(#neonGrad)" stroke-width="0.8" stroke-opacity="0.114"/>
    <line x1="500" y1="87.5" x2="650" y2="132.5" stroke="url(#neonGrad)" stroke-width="0.8" stroke-opacity="0.111"/>
    <line x1="500" y1="87.5" x2="650" y2="162.5" stroke="url(#neonGrad)" stroke-width="0.8" stroke-opacity="0.107"/>
    <line x1="500" y1="87.5" x2="650" y2="192.5" stroke="url(#neonGrad)" stroke-width="0.8" stroke-opacity="0.101"/>
    <line x1="500" y1="117.5" x2="650" y2="132.5" stroke="url(#neonGrad)" stroke-width="0.8" stroke-opacity="0.110"/>
    <line x1="500" y1="117.5" x2="650" y2="162.5" stroke="url(#neonGrad)" stroke-width="0.8" stroke-opacity="0.105"/>
    <line x1="500" y1="117.5" x2="650" y2="192.5" stroke="url(#neonGrad)" stroke-width="0.8" stroke-opacity="0.147"/>
    <line x1="500" y1="147.5" x2="650" y2="132.5" stroke="url(#neonGrad)" stroke-width="0.8" stroke-opacity="0.088"/>
    <line x1="500" y1="147.5" x2="650" y2="162.5" stroke="url(#neonGrad)" stroke-width="0.8" stroke-opacity="0.131"/>
    <line x1="500" y1="147.5" x2="650" y2="192.5" stroke="url(#neonGrad)" stroke-width="0.8" stroke-opacity="0.173"/>
    <line x1="500" y1="177.5" x2="650" y2="132.5" stroke="url(#neonGrad)" stroke-width="0.8" stroke-opacity="0.113"/>
    <line x1="500" y1="177.5" x2="650" y2="162.5" stroke="url(#neonGrad)" stroke-width="0.8" stroke-opacity="0.114"/>
    <line x1="500" y1="177.5" x2="650" y2="192.5" stroke="url(#neonGrad)" stroke-width="0.8" stroke-opacity="0.087"/>
    <line x1="500" y1="207.5" x2="650" y2="132.5" stroke="url(#neonGrad)" stroke-width="0.8" stroke-opacity="0.121"/>
    <line x1="500" y1="207.5" x2="650" y2="162.5" stroke="url(#neonGrad)" stroke-width="0.8" stroke-opacity="0.089"/>
    <line x1="500" y1="207.5" x2="650" y2="192.5" stroke="url(#neonGrad)" stroke-width="0.8" stroke-opacity="0.115"/>
    <line x1="500" y1="237.5" x2="650" y2="132.5" stroke="url(#neonGrad)" stroke-width="0.8" stroke-opacity="0.178"/>
    <line x1="500" y1="237.5" x2="650" y2="162.5" stroke="url(#neonGrad)" stroke-width="0.8" stroke-opacity="0.135"/>
    <line x1="500" y1="237.5" x2="650" y2="192.5" stroke="url(#neonGrad)" stroke-width="0.8" stroke-opacity="0.095"/>
    <circle cx="50" cy="117.5" r="10" fill="none" stroke="#06b6d4" stroke-width="1" stroke-opacity="0.25" filter="url(#glow)"/>
    <circle cx="50" cy="117.5" r="7" fill="#06b6d4" filter="url(#glow)"/>
    <circle cx="50" cy="147.5" r="10" fill="none" stroke="#06b6d4" stroke-width="1" stroke-opacity="0.25" filter="url(#glow)"/>
    <circle cx="50" cy="147.5" r="7" fill="#06b6d4" filter="url(#glow)"/>
    <circle cx="50" cy="177.5" r="10" fill="none" stroke="#06b6d4" stroke-width="1" stroke-opacity="0.25" filter="url(#glow)"/>
    <circle cx="50" cy="177.5" r="7" fill="#06b6d4" filter="url(#glow)"/>
    <circle cx="50" cy="207.5" r="10" fill="none" stroke="#06b6d4" stroke-width="1" stroke-opacity="0.25" filter="url(#glow)"/>
    <circle cx="50" cy="207.5" r="7" fill="#06b6d4" filter="url(#glow)"/>
    <circle cx="200" cy="87.5" r="9" fill="none" stroke="#38bdf8" stroke-width="1" stroke-opacity="0.25" filter="url(#glow)"/>
    <circle cx="200" cy="87.5" r="6" fill="#38bdf8" filter="url(#glow)"/>
    <circle cx="200" cy="117.5" r="9" fill="none" stroke="#38bdf8" stroke-width="1" stroke-opacity="0.25" filter="url(#glow)"/>
    <circle cx="200" cy="117.5" r="6" fill="#38bdf8" filter="url(#glow)"/>
    <circle cx="200" cy="147.5" r="9" fill="none" stroke="#38bdf8" stroke-width="1" stroke-opacity="0.25" filter="url(#glow)"/>
    <circle cx="200" cy="147.5" r="6" fill="#38bdf8" filter="url(#glow)"/>
    <circle cx="200" cy="177.5" r="9" fill="none" stroke="#38bdf8" stroke-width="1" stroke-opacity="0.25" filter="url(#glow)"/>
    <circle cx="200" cy="177.5" r="6" fill="#38bdf8" filter="url(#glow)"/>
    <circle cx="200" cy="207.5" r="9" fill="none" stroke="#38bdf8" stroke-width="1" stroke-opacity="0.25" filter="url(#glow)"/>
    <circle cx="200" cy="207.5" r="6" fill="#38bdf8" filter="url(#glow)"/>
    <circle cx="200" cy="237.5" r="9" fill="none" stroke="#38bdf8" stroke-width="1" stroke-opacity="0.25" filter="url(#glow)"/>
    <circle cx="200" cy="237.5" r="6" fill="#38bdf8" filter="url(#glow)"/>
    <circle cx="350" cy="57.5" r="8" fill="none" stroke="#818cf8" stroke-width="1" stroke-opacity="0.25" filter="url(#glow)"/>
    <circle cx="350" cy="57.5" r="5" fill="#818cf8" filter="url(#glow)"/>
    <circle cx="350" cy="87.5" r="8" fill="none" stroke="#818cf8" stroke-width="1" stroke-opacity="0.25" filter="url(#glow)"/>
    <circle cx="350" cy="87.5" r="5" fill="#818cf8" filter="url(#glow)"/>
    <circle cx="350" cy="117.5" r="8" fill="none" stroke="#818cf8" stroke-width="1" stroke-opacity="0.25" filter="url(#glow)"/>
    <circle cx="350" cy="117.5" r="5" fill="#818cf8" filter="url(#glow)"/>
    <circle cx="350" cy="147.5" r="8" fill="none" stroke="#818cf8" stroke-width="1" stroke-opacity="0.25" filter="url(#glow)"/>
    <circle cx="350" cy="147.5" r="5" fill="#818cf8" filter="url(#glow)"/>
    <circle cx="350" cy="177.5" r="8" fill="none" stroke="#818cf8" stroke-width="1" stroke-opacity="0.25" filter="url(#glow)"/>
    <circle cx="350" cy="177.5" r="5" fill="#818cf8" filter="url(#glow)"/>
    <circle cx="350" cy="207.5" r="8" fill="none" stroke="#818cf8" stroke-width="1" stroke-opacity="0.25" filter="url(#glow)"/>
    <circle cx="350" cy="207.5" r="5" fill="#818cf8" filter="url(#glow)"/>
    <circle cx="350" cy="237.5" r="8" fill="none" stroke="#818cf8" stroke-width="1" stroke-opacity="0.25" filter="url(#glow)"/>
    <circle cx="350" cy="237.5" r="5" fill="#818cf8" filter="url(#glow)"/>
    <circle cx="350" cy="267.5" r="8" fill="none" stroke="#818cf8" stroke-width="1" stroke-opacity="0.25" filter="url(#glow)"/>
    <circle cx="350" cy="267.5" r="5" fill="#818cf8" filter="url(#glow)"/>
    <circle cx="500" cy="87.5" r="9" fill="none" stroke="#a78bfa" stroke-width="1" stroke-opacity="0.25" filter="url(#glow)"/>
    <circle cx="500" cy="87.5" r="6" fill="#a78bfa" filter="url(#glow)"/>
    <circle cx="500" cy="117.5" r="9" fill="none" stroke="#a78bfa" stroke-width="1" stroke-opacity="0.25" filter="url(#glow)"/>
    <circle cx="500" cy="117.5" r="6" fill="#a78bfa" filter="url(#glow)"/>
    <circle cx="500" cy="147.5" r="9" fill="none" stroke="#a78bfa" stroke-width="1" stroke-opacity="0.25" filter="url(#glow)"/>
    <circle cx="500" cy="147.5" r="6" fill="#a78bfa" filter="url(#glow)"/>
    <circle cx="500" cy="177.5" r="9" fill="none" stroke="#a78bfa" stroke-width="1" stroke-opacity="0.25" filter="url(#glow)"/>
    <circle cx="500" cy="177.5" r="6" fill="#a78bfa" filter="url(#glow)"/>
    <circle cx="500" cy="207.5" r="9" fill="none" stroke="#a78bfa" stroke-width="1" stroke-opacity="0.25" filter="url(#glow)"/>
    <circle cx="500" cy="207.5" r="6" fill="#a78bfa" filter="url(#glow)"/>
    <circle cx="500" cy="237.5" r="9" fill="none" stroke="#a78bfa" stroke-width="1" stroke-opacity="0.25" filter="url(#glow)"/>
    <circle cx="500" cy="237.5" r="6" fill="#a78bfa" filter="url(#glow)"/>
    <circle cx="650" cy="132.5" r="11" fill="none" stroke="#c084fc" stroke-width="1" stroke-opacity="0.25" filter="url(#glow)"/>
    <circle cx="650" cy="132.5" r="8" fill="#c084fc" filter="url(#glow)"/>
    <circle cx="650" cy="162.5" r="11" fill="none" stroke="#c084fc" stroke-width="1" stroke-opacity="0.25" filter="url(#glow)"/>
    <circle cx="650" cy="162.5" r="8" fill="#c084fc" filter="url(#glow)"/>
    <circle cx="650" cy="192.5" r="11" fill="none" stroke="#c084fc" stroke-width="1" stroke-opacity="0.25" filter="url(#glow)"/>
    <circle cx="650" cy="192.5" r="8" fill="#c084fc" filter="url(#glow)"/>
    <circle r="2.5" fill="#fff" opacity="0.9" filter="url(#glow)">
      <animate attributeName="cx" from="50" to="200" dur="2.00s" repeatCount="indefinite"/>
      <animate attributeName="cy" from="117.5" to="87.5" dur="2.00s" repeatCount="indefinite"/>
      <animate attributeName="opacity" values="0;0.9;0.9;0" dur="2.00s" repeatCount="indefinite"/>
    </circle>
    <circle r="2.5" fill="#fff" opacity="0.9" filter="url(#glow)">
      <animate attributeName="cx" from="50" to="200" dur="2.30s" repeatCount="indefinite"/>
      <animate attributeName="cy" from="147.5" to="147.5" dur="2.30s" repeatCount="indefinite"/>
      <animate attributeName="opacity" values="0;0.9;0.9;0" dur="2.30s" repeatCount="indefinite"/>
    </circle>
    <circle r="2.5" fill="#fff" opacity="0.9" filter="url(#glow)">
      <animate attributeName="cx" from="50" to="200" dur="2.60s" repeatCount="indefinite"/>
      <animate attributeName="cy" from="177.5" to="207.5" dur="2.60s" repeatCount="indefinite"/>
      <animate attributeName="opacity" values="0;0.9;0.9;0" dur="2.60s" repeatCount="indefinite"/>
    </circle>
    <circle r="2.5" fill="#fff" opacity="0.9" filter="url(#glow)">
      <animate attributeName="cx" from="200" to="350" dur="2.50s" repeatCount="indefinite"/>
      <animate attributeName="cy" from="87.5" to="57.5" dur="2.50s" repeatCount="indefinite"/>
      <animate attributeName="opacity" values="0;0.9;0.9;0" dur="2.50s" repeatCount="indefinite"/>
    </circle>
    <circle r="2.5" fill="#fff" opacity="0.9" filter="url(#glow)">
      <animate attributeName="cx" from="200" to="350" dur="2.80s" repeatCount="indefinite"/>
      <animate attributeName="cy" from="117.5" to="117.5" dur="2.80s" repeatCount="indefinite"/>
      <animate attributeName="opacity" values="0;0.9;0.9;0" dur="2.80s" repeatCount="indefinite"/>
    </circle>
    <circle r="2.5" fill="#fff" opacity="0.9" filter="url(#glow)">
      <animate attributeName="cx" from="200" to="350" dur="3.10s" repeatCount="indefinite"/>
      <animate attributeName="cy" from="147.5" to="177.5" dur="3.10s" repeatCount="indefinite"/>
      <animate attributeName="opacity" values="0;0.9;0.9;0" dur="3.10s" repeatCount="indefinite"/>
    </circle>
    <circle r="2.5" fill="#fff" opacity="0.9" filter="url(#glow)">
      <animate attributeName="cx" from="350" to="500" dur="3.00s" repeatCount="indefinite"/>
      <animate attributeName="cy" from="57.5" to="87.5" dur="3.00s" repeatCount="indefinite"/>
      <animate attributeName="opacity" values="0;0.9;0.9;0" dur="3.00s" repeatCount="indefinite"/>
    </circle>
    <circle r="2.5" fill="#fff" opacity="0.9" filter="url(#glow)">
      <animate attributeName="cx" from="350" to="500" dur="3.30s" repeatCount="indefinite"/>
      <animate attributeName="cy" from="87.5" to="147.5" dur="3.30s" repeatCount="indefinite"/>
      <animate attributeName="opacity" values="0;0.9;0.9;0" dur="3.30s" repeatCount="indefinite"/>
    </circle>
    <circle r="2.5" fill="#fff" opacity="0.9" filter="url(#glow)">
      <animate attributeName="cx" from="350" to="500" dur="3.60s" repeatCount="indefinite"/>
      <animate attributeName="cy" from="117.5" to="207.5" dur="3.60s" repeatCount="indefinite"/>
      <animate attributeName="opacity" values="0;0.9;0.9;0" dur="3.60s" repeatCount="indefinite"/>
    </circle>
    <circle r="2.5" fill="#fff" opacity="0.9" filter="url(#glow)">
      <animate attributeName="cx" from="500" to="650" dur="3.50s" repeatCount="indefinite"/>
      <animate attributeName="cy" from="87.5" to="132.5" dur="3.50s" repeatCount="indefinite"/>
      <animate attributeName="opacity" values="0;0.9;0.9;0" dur="3.50s" repeatCount="indefinite"/>
    </circle>
    <circle r="2.5" fill="#fff" opacity="0.9" filter="url(#glow)">
      <animate attributeName="cx" from="500" to="650" dur="3.80s" repeatCount="indefinite"/>
      <animate attributeName="cy" from="117.5" to="192.5" dur="3.80s" repeatCount="indefinite"/>
      <animate attributeName="opacity" values="0;0.9;0.9;0" dur="3.80s" repeatCount="indefinite"/>
    </circle>
    <circle r="2.5" fill="#fff" opacity="0.9" filter="url(#glow)">
      <animate attributeName="cx" from="500" to="650" dur="4.10s" repeatCount="indefinite"/>
      <animate attributeName="cy" from="147.5" to="162.5" dur="4.10s" repeatCount="indefinite"/>
      <animate attributeName="opacity" values="0;0.9;0.9;0" dur="4.10s" repeatCount="indefinite"/>
    </circle>
    <text x="50" y="305" text-anchor="middle" font-family="monospace" font-size="11" fill="#475569" letter-spacing="1">Input</text>
    <text x="200" y="305" text-anchor="middle" font-family="monospace" font-size="11" fill="#475569" letter-spacing="1">Dense</text>
    <text x="350" y="305" text-anchor="middle" font-family="monospace" font-size="11" fill="#475569" letter-spacing="1">Attn</text>
    <text x="500" y="305" text-anchor="middle" font-family="monospace" font-size="11" fill="#475569" letter-spacing="1">Dense</text>
    <text x="650" y="305" text-anchor="middle" font-family="monospace" font-size="11" fill="#475569" letter-spacing="1">Out</text>
  </g>

  <!-- Contact Info -->
  <g transform="translate(1534, 371)" text-anchor="end">
    <text x="0" y="-18" font-family="'Segoe UI', Roboto, sans-serif" font-weight="500" font-size="22" fill="#e2e8f0" letter-spacing="0.5">linkedin.com/in/chandan11248</text>
    <text x="0" y="8" font-family="'Segoe UI', Roboto, sans-serif" font-weight="500" font-size="22" fill="#cbd5e1" letter-spacing="0.5">letschandansah@gmail.com</text>
  </g>
</svg>